<svg xmlns="http://www.w3.org/2000/svg" xml:space="preserve" width="114.002" height="44.001" style="shape-rendering:geometricPrecision;text-rendering:geometricPrecision;image-rendering:optimizeQuality;fill-rule:evenodd;clip-rule:evenodd" viewBox="0 0 3016.3 1164.2"><defs><linearGradient id="id1" x1="2275.54" x2="2275.54" y1="2.11" y2="346.07" gradientUnits="userSpaceOnUse"><stop offset="0" style="stop-opacity:1;stop-color:#ecd870"/><stop offset="1" style="stop-opacity:1;stop-color:#ee5c44"/></linearGradient><linearGradient id="id2" x1="2268.05" x2="2268.05" y1="372.53" y2="848.77" gradientUnits="userSpaceOnUse"><stop offset="0" style="stop-opacity:1;stop-color:#ee5c44"/><stop offset=".839" style="stop-opacity:1;stop-color:#ee5c44"/><stop offset="1" style="stop-opacity:1;stop-color:#ee5c44"/></linearGradient><clipPath id="id0" style="clip-rule:nonzero"><path d="M2130.76 369.56h308.22V2.11h-308.22z"/></clipPath><style>.fil2{fill:#fff;fill-rule:nonzero}</style></defs><g id="Слой_x0020_1"><g id="_2264722202672"><path d="M2567.27 733.88h58v-241.4h-58V387.26h264.3c54.84 0 98 12.7 129.46 38.09 31.9 25.39 47.86 60.46 47.86 105.21s-15.96 79.82-47.86 105.21c-31.46 25.39-74.62 38.09-129.46 38.09h-90.33v60.02h92.36V839.1h-266.33zm254.85-145.23c18.44 0 33.28-4.73 44.5-14.2 11.25-9.47 16.86-21.73 16.86-36.79s-5.61-27.33-16.86-36.79c-11.22-9.47-26.06-14.2-44.5-14.2h-80.88v101.98z" style="fill:#ee5c44;fill-rule:nonzero"/><path d="M2289.01 848.78c-40.45 0-76.64-8.18-108.55-24.53-31.92-16.35-57.09-38.94-75.52-67.78-17.98-29.26-26.97-62.61-26.97-100.04V492.48h-53.26V387.26h231.94v105.22h-61.36v160.07c0 16.79 4.05 31.85 12.14 45.19q12.12 19.365 33.03 30.33c13.94 7.32 30.11 10.98 48.55 10.98 16.62 0 31.46-3.66 44.5-10.98 13.47-7.31 23.82-17.42 31.01-30.33 7.65-13.34 11.46-28.4 11.46-45.19V492.48h-61.36V387.26h232.62v105.22h-53.94v163.95c0 37.43-8.76 70.78-26.3 100.04-17.52 28.84-41.81 51.43-72.82 67.78s-66.06 24.53-105.17 24.53" style="fill:url(#id2);fill-rule:nonzero"/><path d="M1682.58 744.86h47.86V610.6h-47.86v-94.24h136.19v29.7c5.84-9.9 13.71-17.86 23.6-23.89 10.33-6.45 21.35-9.68 33.03-9.68 9.89 0 19.78 2.37 29.67 7.1 2.69 1.29 5.39 2.8 8.09 4.52s5.17 3.44 7.42 5.16v-22.59h91.69v160.08h-91.69v-20.01c0-8.18-2.03-15.28-6.07-21.3-3.6-6.46-8.77-11.4-15.51-14.85-6.74-3.87-14.38-5.81-22.92-5.81s-16.41 2.37-23.6 7.1c-7.19 4.31-13.04 10.33-17.53 18.08-4.05 7.74-6.07 16.56-6.07 26.46v88.43h77.54v94.24h-223.84zM1552.41 820.38c-9.89 6.88-20.67 12.48-32.36 16.78-8.09 2.58-16.63 4.52-25.62 5.81-8.99 1.72-18.65 2.58-28.99 2.58-31.01 0-59.33-6.67-84.95-20.01-25.18-13.34-45.18-32.27-60.01-56.8s-22.25-53.36-22.25-86.49c0-34 7.87-63.9 23.6-89.72 15.73-26.25 37.08-46.48 64.05-60.68 27.42-14.63 58.43-21.94 93.04-21.94q51.24 0 91.02 21.3c26.97 14.2 47.87 33.99 62.71 59.38 14.83 25.39 22.24 54.65 22.24 87.78 0 4.74-.22 9.69-.67 14.85 0 4.74-.45 9.68-1.35 14.85h-253.5c3.59 10.75 8.98 20.44 16.18 29.04 7.19 8.61 16.18 15.28 26.96 20.01 11.24 4.31 23.6 6.46 37.09 6.46 8.99 0 17.53-1.29 25.62-3.88 8.09-2.58 14.6-5.81 19.55-9.68 5.39-4.3 9.44-8.6 12.14-12.91v-2.58h107.2v111.02h-91.7zm-.67-174.28c-3.15-10.75-8.54-20.01-16.18-27.75-7.19-8.18-15.96-14.42-26.3-18.72-10.33-4.31-21.57-6.46-33.71-6.46-11.68 0-22.7 2.15-33.04 6.46-9.88 4.3-18.65 10.54-26.29 18.72-7.19 7.74-12.36 17-15.51 27.75zM1078.53 744.86h49.89V481.5h-52.59v-94.24h151.02v357.6h51.25v94.24h-199.57zM858.71 744.86h49.89V610.6h-49.89v-94.24h148.33v228.5h49.89v94.24H858.71zm14.16-386.64h145.63l-69.45 125.23h-6.74zM650.58 845.55c-35.95 0-68.09-7.1-96.41-21.3s-50.56-33.99-66.75-59.38c-15.73-25.82-23.59-54.87-23.59-87.14q0-48.405 24.27-86.49c16.18-25.39 38.43-45.19 66.74-59.39 28.32-14.63 60.23-21.94 95.74-21.94q54.615 0 96.42 21.3c28.32 14.2 50.34 34.21 66.07 60.03 16.18 25.39 24.28 54.22 24.28 86.49s-8.1 61.1-24.28 86.49q-23.595 38.085-66.75 60.03c-28.31 14.2-60.23 21.3-95.74 21.3m0-94.24q22.26 0 39.78-9.03c12.14-6.46 21.35-15.28 27.65-26.47 6.74-11.19 10.11-23.88 10.11-38.08s-3.37-26.89-10.11-38.08c-6.3-11.19-15.51-19.8-27.65-25.82-11.68-6.46-24.94-9.68-39.78-9.68-14.83 0-28.09 3.22-39.77 9.68-11.69 6.02-20.91 14.63-27.65 25.82s-10.11 23.88-10.11 38.08 3.37 26.89 10.11 38.08 15.96 20.01 27.65 26.47c11.68 6.02 24.94 9.03 39.77 9.03M-7.36 733.88h57.98v-241.4H-7.36V387.26h280.48c48.09 0 85.85 10.33 113.26 30.99 27.87 20.65 41.81 49.05 41.81 85.2 0 24.53-6.75 45.83-20.23 63.9q-20.22 27.105-56.64 40.02v7.1c29.22 7.75 51.7 20.87 67.43 39.37 16.18 18.51 24.27 41.53 24.27 69.07 0 36.15-13.93 64.55-41.8 85.2-27.42 20.66-65.18 30.99-113.27 30.99H-7.36zm271.04 5.81c15.73 0 28.31-3.65 37.75-10.97 9.89-7.75 14.84-17.86 14.84-30.34 0-12.91-4.95-23.24-14.84-30.98s-22.47-11.62-37.75-11.62h-97.09v83.91zm-12.14-170.4c15.28 0 27.64-3.87 37.08-11.62s14.16-17.86 14.16-30.34q0-18.075-14.16-29.04c-9.44-7.75-21.8-11.62-37.08-11.62h-84.95v82.62z" class="fil2"/><g style="clip-path:url(#id0)"><path d="M2432.18 330.92c-11.59 39.57-75.28 90.22-75.28 90.22s-.31-3.81 0-6.22c22.78-174.65-67.23-242.38-67.23-242.38s-7.62 62.1-57.15 103.13c-55.04 37.35-53.77 109.34-11.69 148.51-93.37-42.89-125.34-169.47-41.91-247.36 66.96-75.81 87.92-134.05 62.89-174.71 146.16 44.16 221.01 205.25 190.39 328.81z" style="fill:url(#id1)"/></g><path d="M2130.76 369.56h308.22V2.11h-308.22z" style="fill:none;fill-rule:nonzero"/><path d="M2958.8 1164.83h-20.55c-.45 0-.69-.24-.69-.71l.16-101.44c0-.38.29-.58.9-.58h20.18c.61 0 .9.2.9.58l-.18 40.15h27.22v-40.15c0-.38.24-.58.69-.58h20.22c.58 0 .9.2.9.58l.34 101.44c0 .47-.29.71-.87.71h-20.4c-.59 0-.88-.24-.88-.71v-43.41h-27.22v43.41c0 .47-.24.71-.72.71M2827.39 1164.83h-20.48c-.53 0-.8-.24-.8-.71v-84.21h-23.57c-.61 0-.9-.24-.9-.72l.18-16.51c0-.38.24-.58.72-.58h68.95c.63 0 .98.2.98.58v16.51q0 .72-.72.72h-23.84l.16 84.21c0 .47-.21.71-.68.71M2636.2 1164.83h-20.56c-.48 0-.72-.24-.72-.71l.38-101.44c0-.38.23-.58.68-.58h22.18c.47 0 .87.2 1.24.58l16.56 19.46 16.49-19.46c.34-.38.79-.58 1.32-.58h22.25c.53 0 .79.2.79.58l.37 101.44c0 .47-.23.71-.71.71h-20.56c-.48 0-.71-.24-.71-.71l-.19-75.34-19.05 22.49-18.86-22.49-.19 75.34c0 .47-.24.71-.71.71M2472.39 1164.83h-20.55c-.48 0-.72-.24-.72-.71l.37-101.44c0-.38.24-.58.72-.58h36.67c6.56 0 12.59 1.3 18.09 3.89 5.48 2.6 9.87 6.08 13.1 10.46 3.31 4.37 4.98 9.32 4.98 14.85 0 3.61-.69 6.87-2.04 9.8-1.35 2.94-2.96 5.41-4.79 7.43-1.77 2.02-3.39 3.51-4.87 4.47 6.56 5.91 9.84 12.86 9.84 20.84l.16 30.28c0 .47-.29.71-.87.71h-20.56c-.48 0-.71-.14-.71-.43v-30.56c0-3.56-1.54-6.64-4.61-9.23-3.07-2.6-6.85-3.9-11.35-3.9h-11.96l-.18 43.41c0 .47-.24.71-.72.71m16.49-85.06h-15.59v23.21h15.59c3.73 0 7.04-1.13 9.92-3.39 2.96-2.26 4.44-5.02 4.44-8.29 0-3.12-1.42-5.82-4.26-8.07-2.83-2.31-6.19-3.46-10.1-3.46M2291.34 1164.12l22.49-101.44c.13-.38.42-.58.9-.58h26.32c.48 0 .77.2.88.58l21.64 101.44c.05.47-.18.71-.71.71h-20.14c-.58 0-.9-.24-.95-.71l-1.96-10.82h-24.74l-1.93 10.82c-.08.47-.37.71-.9.71h-20.21c-.45 0-.69-.24-.69-.71m37.38-68.06-1.05-5.48-.8 5.48-8.15 41.45h17.47zM2154.83 1164.83h-21.98c-.53 0-.82-.24-.88-.71l-21.45-101.44c-.12-.38.06-.58.53-.58h20.39c.47 0 .76.2.88.58l11.61 66.68 11.97-66.68c.11-.38.47-.58 1.06-.58h16.39c.48 0 .77.2.89.58l11.79 66.68 11.78-66.68c.12-.38.42-.58.89-.58h20.2c.6 0 .84.2.71.58l-21.62 101.44c-.06.19-.23.35-.53.5l-.35.21h-21.98c-.36 0-.65-.24-.89-.71l-9.31-53-9.21 53c-.06.47-.36.71-.89.71M1850.2 1164.83h-20.56c-.47 0-.71-.24-.71-.71l.36-101.44c0-.38.23-.58.71-.58h36.69c6.55 0 12.58 1.3 18.08 3.89 5.49 2.6 9.86 6.08 13.11 10.46 3.31 4.37 4.97 9.32 4.97 14.85 0 3.61-.68 6.87-2.04 9.8-1.36 2.94-2.96 5.41-4.79 7.43-1.77 2.02-3.39 3.51-4.87 4.47 6.56 5.91 9.83 12.86 9.83 20.84l.18 30.28c0 .47-.29.71-.89.71h-20.56c-.47 0-.71-.14-.71-.43v-30.56c0-3.56-1.53-6.64-4.6-9.23-3.07-2.6-6.86-3.9-11.35-3.9h-11.96l-.18 43.41c0 .47-.23.71-.71.71m16.49-85.06h-15.6v23.21h15.6c3.72 0 7.03-1.13 9.92-3.39 2.96-2.26 4.43-5.02 4.43-8.29 0-3.12-1.41-5.82-4.25-8.07-2.84-2.31-6.2-3.46-10.1-3.46M1702.63 1166.28c-6.38 0-12.29-1.35-17.73-4.04-5.43-2.69-9.77-6.3-13.02-10.81-3.19-4.57-4.79-9.55-4.79-14.93l.36-73.82c0-.38.23-.58.71-.58h20.38c.47 0 .71.2.71.58v73.82c0 3.32 1.3 6.15 3.9 8.51 2.6 2.31 5.76 3.46 9.48 3.46 3.9 0 7.15-1.15 9.75-3.46 2.6-2.36 3.9-5.19 3.9-8.51v-73.82c0-.38.23-.58.71-.58h20.38c.47 0 .71.2.71.58l.35 73.82c0 5.43-1.59 10.43-4.78 15-3.25 4.52-7.56 8.12-12.94 10.81-5.38 2.64-11.4 3.97-18.08 3.97M1543.62 1166.28c-6.44 0-12.38-1.35-17.81-4.04-5.38-2.69-9.72-6.27-13.03-10.74-3.25-4.52-4.87-9.47-4.87-14.85l.17-46.79c0-5.48 1.63-10.41 4.88-14.78 3.19-4.42 7.5-7.96 12.94-10.6 5.43-2.69 11.34-4.04 17.72-4.04 6.62 0 12.56 1.33 17.81 3.97 5.32 2.64 9.58 6.2 12.77 10.67 3.25 4.42 4.87 9.35 4.87 14.78l.18 46.79c0 5.38-1.6 10.3-4.79 14.78-3.25 4.51-7.56 8.12-12.94 10.81-5.37 2.69-11.34 4.04-17.9 4.04m0-17.81c3.66 0 6.85-1.2 9.57-3.61 2.72-2.45 4.08-5.19 4.08-8.21l-.18-46.79c0-3.27-1.27-6.04-3.81-8.29q-3.81-3.39-9.66-3.39c-3.72 0-6.91 1.1-9.57 3.31-2.66 2.22-3.99 5-3.99 8.37v46.79c0 3.22 1.33 6 3.99 8.36 2.66 2.31 5.85 3.46 9.57 3.46M1411.56 1164.83h-20.83c-.41 0-.62-.19-.62-.57l.18-41.96-24.29-59.62c-.11-.38.06-.58.54-.58h20.2c.59 0 .95.2 1.07.58l13.38 39.72 13.65-39.72c.11-.38.41-.58.88-.58h20.39c.47 0 .65.2.53.58l-24.55 59.04.18 42.54c0 .38-.24.57-.71.57M1125.62 1166.28c-6.56 0-12.47-1.33-17.72-3.97-5.32-2.64-9.6-6.2-12.85-10.67-3.19-4.47-4.79-9.47-4.79-14.99v-46.79c0-5.38 1.63-10.29 4.87-14.71 3.19-4.47 7.48-8.03 12.85-10.67 5.38-2.69 11.26-4.04 17.64-4.04 6.68 0 12.7 1.3 18.08 3.9 5.38 2.64 9.63 6.17 12.76 10.59 3.19 4.43 4.79 9.4 4.79 14.93v6.77c0 .39-.3.58-.89.58h-20.38c-.47 0-.71-.19-.71-.58v-5.62q0-5.625-3.9-9.3c-2.6-2.45-5.85-3.68-9.75-3.68q-5.235 0-9.3 3.54c-2.72 2.35-4.08 5.11-4.08 8.29v46.79c0 3.22 1.33 6 3.99 8.36 2.66 2.31 5.79 3.46 9.39 3.46q5.85 0 9.75-3.39 3.9-3.465 3.9-8.43v-7.29h-12.67c-.65 0-.98-.24-.98-.72v-16.51c0-.48.33-.72.98-.72h33.94c.47 0 .71.24.71.72v24.52c0 5.52-1.6 10.52-4.79 14.99-3.25 4.47-7.53 8.03-12.85 10.67-5.31 2.64-11.31 3.97-17.99 3.97M951.73 1164.83h-18.17c-.94 0-1.41-.33-1.41-1l-.18-100.57c0-.77.47-1.16 1.42-1.16h16.39l30.67 58.18-.89-57.02c0-.77.53-1.16 1.59-1.16h18c.7 0 1.06.39 1.06 1.16l.18 100.71c0 .58-.3.86-.89.86h-15.95l-31.47-54.35 1.34 53.2c0 .77-.57 1.15-1.69 1.15M839.07 1164.83h-20.56c-.59 0-.89-.24-.89-.71l.18-101.44c0-.38.24-.58.71-.58h20.38c.48 0 .71.2.71.58l.18 101.44c0 .47-.24.71-.71.71M675.1 1164.83h-20.56c-.47 0-.71-.24-.71-.71l.36-101.44c0-.38.24-.58.71-.58h36.69c6.56 0 12.58 1.3 18.08 3.89 5.49 2.6 9.86 6.08 13.11 10.46 3.31 4.37 4.97 9.32 4.97 14.85 0 3.61-.68 6.87-2.04 9.8-1.36 2.94-2.96 5.41-4.79 7.43-1.77 2.02-3.39 3.51-4.87 4.47 6.56 5.91 9.83 12.86 9.83 20.84l.18 30.28c0 .47-.29.71-.88.71h-20.57c-.47 0-.7-.14-.7-.43v-30.56c0-3.56-1.54-6.64-4.61-9.23-3.08-2.6-6.86-3.9-11.35-3.9h-11.96l-.18 43.41c0 .47-.23.71-.71.71m16.49-85.06h-15.6v23.21h15.6c3.72 0 7.03-1.13 9.92-3.39 2.96-2.26 4.44-5.02 4.44-8.29 0-3.12-1.42-5.82-4.26-8.07-2.84-2.31-6.2-3.46-10.1-3.46M560.77 1164.83H502.1c-.48 0-.71-.24-.71-.71l.18-101.44c0-.38.23-.58.7-.58h58.32c.47 0 .71.24.71.72v16.51c0 .39-.24.58-.71.58h-37.22v23.07h37.22c.47 0 .71.19.71.57l.17 16.73c0 .39-.23.58-.7.58h-37.4v25.81h37.4c.47 0 .7.24.7.72v16.87c0 .38-.23.57-.7.57M349.74 1164.83h-21.98c-.53 0-.83-.24-.89-.71l-21.45-101.44c-.11-.38.06-.58.54-.58h20.38c.47 0 .77.2.89.58l11.61 66.68 11.96-66.68c.12-.38.47-.58 1.06-.58h16.4c.47 0 .77.2.88.58l11.79 66.68 11.79-66.68c.12-.38.41-.58.88-.58h20.21c.59 0 .83.2.71.58l-21.62 101.44c-.06.19-.24.35-.54.5l-.35.21h-21.98c-.35 0-.65-.24-.89-.71l-9.3-53-9.22 53c-.06.47-.35.71-.88.71M185.41 1166.28c-6.44 0-12.38-1.35-17.82-4.04-5.37-2.69-9.72-6.27-13.03-10.74-3.24-4.52-4.87-9.47-4.87-14.85l.18-46.79c0-5.48 1.62-10.41 4.87-14.78 3.19-4.42 7.51-7.96 12.94-10.6 5.44-2.69 11.34-4.04 17.73-4.04 6.61 0 12.55 1.33 17.81 3.97 5.32 2.64 9.57 6.2 12.76 10.67 3.25 4.42 4.88 9.35 4.88 14.78l.17 46.79c0 5.38-1.59 10.3-4.78 14.78-3.25 4.51-7.57 8.12-12.94 10.81-5.38 2.69-11.34 4.04-17.9 4.04m0-17.81c3.66 0 6.85-1.2 9.57-3.61 2.72-2.45 4.07-5.19 4.07-8.21l-.17-46.79c0-3.27-1.27-6.04-3.81-8.29q-3.81-3.39-9.66-3.39c-3.73 0-6.92 1.1-9.58 3.31-2.65 2.22-3.98 5-3.98 8.37v46.79c0 3.22 1.33 6 3.98 8.36 2.66 2.31 5.85 3.46 9.58 3.46M13.91 1164.83H-6.47c-.59 0-.89-.24-.89-.71l.35-101.44c0-.38.24-.58.71-.58h34.92c11.11 0 19.88 2.77 26.32 8.29 6.5 5.48 9.75 12.96 9.75 22.43 0 6.91-1.68 12.95-5.05 18.09-3.43 5.09-7.86 9.04-13.29 11.82-5.44 2.79-11.35 4.18-17.73 4.18H14.8v37.21c0 .47-.3.71-.89.71m14.71-85.21-13.82.15v29.26h13.82c3.84 0 7.18-1.49 10.01-4.46 2.84-3.03 4.26-6.95 4.26-11.75q0-5.775-3.81-9.45c-2.54-2.5-6.03-3.75-10.46-3.75" class="fil2"/></g></g></svg>