<svg width="44" height="44" viewBox="0 0 44 44" fill="none" xmlns="http://www.w3.org/2000/svg">
<rect width="44" height="44" rx="22" fill="#EE5C44"/>
<path d="M22.5833 32.1668C25.1435 32.1668 27.5499 31.1702 29.3602 29.3599L28.0046 28.0048C26.5566 29.4528 24.6313 30.2502 22.5833 30.2502C18.3561 30.2502 14.9167 26.8107 14.9167 22.5835C14.9167 18.3563 18.3561 14.9168 22.5833 14.9168C26.8105 14.9168 30.25 18.3563 30.25 22.5835C30.25 23.6405 29.3904 24.5002 28.3333 24.5002C27.2763 24.5002 26.4167 23.6405 26.4167 22.5835V18.7502H24.5V19.2672C23.9355 18.9404 23.2824 18.7502 22.5833 18.7502C20.4664 18.7502 18.75 20.4665 18.75 22.5835C18.75 24.7005 20.4664 26.4168 22.5833 26.4168C23.7305 26.4168 24.7568 25.9103 25.4598 25.1121C26.1627 25.9099 27.1886 26.4168 28.3333 26.4168C30.4469 26.4168 32.1667 24.6971 32.1667 22.5835C32.1667 17.2992 27.8676 13.0002 22.5833 13.0002C17.2991 13.0002 13 17.2992 13 22.5835C13 27.8677 17.2991 32.1668 22.5833 32.1668ZM22.5833 24.5002C21.5263 24.5002 20.6667 23.6405 20.6667 22.5835C20.6667 21.5265 21.5263 20.6668 22.5833 20.6668C23.6404 20.6668 24.5 21.5265 24.5 22.5835C24.5 23.6405 23.6404 24.5002 22.5833 24.5002Z" fill="white"/>
</svg>
