<svg width="44" height="44" viewBox="0 0 44 44" fill="none" xmlns="http://www.w3.org/2000/svg">
<rect width="44" height="44" rx="22" fill="#EE5C44"/>
<g clip-path="url(#clip0_2021_512)">
<path d="M29.48 17.27C26.84 13.2 21.45 11.99 17.27 14.52C13.2 17.05 11.88 22.55 14.52 26.62L14.74 26.95L13.86 30.25L17.16 29.37L17.49 29.59C18.92 30.36 20.46 30.8 22 30.8C23.65 30.8 25.3 30.36 26.73 29.48C30.8 26.84 32.01 21.45 29.48 17.27ZM27.17 25.74C26.73 26.4 26.18 26.84 25.41 26.95C24.97 26.95 24.42 27.17 22.22 26.29C20.35 25.41 18.81 23.98 17.71 22.33C17.05 21.56 16.72 20.57 16.61 19.58C16.61 18.7 16.94 17.93 17.49 17.38C17.71 17.16 17.93 17.05 18.15 17.05H18.7C18.92 17.05 19.14 17.05 19.25 17.49C19.47 18.04 20.02 19.36 20.02 19.47C20.13 19.58 20.13 19.8 20.02 19.91C20.13 20.13 20.02 20.35 19.91 20.46C19.8 20.57 19.69 20.79 19.58 20.9C19.36 21.01 19.25 21.23 19.36 21.45C19.8 22.11 20.35 22.77 20.9 23.32C21.56 23.87 22.22 24.31 22.99 24.64C23.21 24.75 23.43 24.75 23.54 24.53C23.65 24.31 24.2 23.76 24.42 23.54C24.64 23.32 24.75 23.32 24.97 23.43L26.73 24.31C26.95 24.42 27.17 24.53 27.28 24.64C27.39 24.97 27.39 25.41 27.17 25.74Z" fill="white"/>
</g>
<defs>
<clipPath id="clip0_2021_512">
<rect width="22" height="22" fill="white" transform="translate(11 11)"/>
</clipPath>
</defs>
</svg>
